<mxfile host="Electron" agent="Mozilla/5.0 (Windows NT 10.0; Win64; x64) AppleWebKit/537.36 (KHTML, like Gecko) draw.io/27.0.2 Chrome/134.0.6998.205 Electron/35.3.0 Safari/537.36" version="27.0.2">
  <diagram name="Page-1" id="LOkL9xCQ4X_FRFchYs-n">
    <mxGraphModel dx="446" dy="551" grid="1" gridSize="10" guides="1" tooltips="1" connect="1" arrows="1" fold="1" page="1" pageScale="1" pageWidth="827" pageHeight="1169" math="0" shadow="0">
      <root>
        <mxCell id="0" />
        <mxCell id="1" parent="0" />
        <mxCell id="fKcihqamNsGxkIQtzTN--3" style="edgeStyle=orthogonalEdgeStyle;rounded=0;orthogonalLoop=1;jettySize=auto;html=1;exitX=0.5;exitY=1;exitDx=0;exitDy=0;entryX=0.5;entryY=0;entryDx=0;entryDy=0;" edge="1" parent="1" source="fKcihqamNsGxkIQtzTN--1" target="fKcihqamNsGxkIQtzTN--2">
          <mxGeometry relative="1" as="geometry" />
        </mxCell>
        <mxCell id="fKcihqamNsGxkIQtzTN--1" value="" style="ellipse;fillColor=strokeColor;html=1;" vertex="1" parent="1">
          <mxGeometry x="430" y="50" width="30" height="30" as="geometry" />
        </mxCell>
        <mxCell id="fKcihqamNsGxkIQtzTN--6" style="edgeStyle=orthogonalEdgeStyle;rounded=0;orthogonalLoop=1;jettySize=auto;html=1;exitX=0;exitY=1;exitDx=0;exitDy=0;entryX=0.5;entryY=0;entryDx=0;entryDy=0;" edge="1" parent="1" source="fKcihqamNsGxkIQtzTN--2" target="fKcihqamNsGxkIQtzTN--4">
          <mxGeometry relative="1" as="geometry" />
        </mxCell>
        <mxCell id="fKcihqamNsGxkIQtzTN--7" value="Login Successful" style="edgeLabel;html=1;align=center;verticalAlign=middle;resizable=0;points=[];" vertex="1" connectable="0" parent="fKcihqamNsGxkIQtzTN--6">
          <mxGeometry x="-0.0607" y="-2" relative="1" as="geometry">
            <mxPoint as="offset" />
          </mxGeometry>
        </mxCell>
        <mxCell id="fKcihqamNsGxkIQtzTN--8" style="edgeStyle=orthogonalEdgeStyle;rounded=0;orthogonalLoop=1;jettySize=auto;html=1;exitX=1;exitY=0.5;exitDx=0;exitDy=0;entryX=0.5;entryY=0;entryDx=0;entryDy=0;" edge="1" parent="1" source="fKcihqamNsGxkIQtzTN--2" target="fKcihqamNsGxkIQtzTN--5">
          <mxGeometry relative="1" as="geometry" />
        </mxCell>
        <mxCell id="fKcihqamNsGxkIQtzTN--9" value="Start" style="edgeLabel;html=1;align=center;verticalAlign=middle;resizable=0;points=[];" vertex="1" connectable="0" parent="fKcihqamNsGxkIQtzTN--8">
          <mxGeometry x="0.322" y="-3" relative="1" as="geometry">
            <mxPoint as="offset" />
          </mxGeometry>
        </mxCell>
        <mxCell id="fKcihqamNsGxkIQtzTN--2" value="App Login" style="html=1;align=center;verticalAlign=top;rounded=1;absoluteArcSize=1;arcSize=10;dashed=0;whiteSpace=wrap;" vertex="1" parent="1">
          <mxGeometry x="392.5" y="140" width="105" height="30" as="geometry" />
        </mxCell>
        <mxCell id="fKcihqamNsGxkIQtzTN--11" style="edgeStyle=orthogonalEdgeStyle;rounded=0;orthogonalLoop=1;jettySize=auto;html=1;exitX=0.75;exitY=1;exitDx=0;exitDy=0;entryX=0;entryY=0.5;entryDx=0;entryDy=0;" edge="1" parent="1" source="fKcihqamNsGxkIQtzTN--4" target="fKcihqamNsGxkIQtzTN--10">
          <mxGeometry relative="1" as="geometry" />
        </mxCell>
        <mxCell id="fKcihqamNsGxkIQtzTN--13" value="Access" style="edgeLabel;html=1;align=center;verticalAlign=middle;resizable=0;points=[];" vertex="1" connectable="0" parent="fKcihqamNsGxkIQtzTN--11">
          <mxGeometry x="-0.6229" y="4" relative="1" as="geometry">
            <mxPoint as="offset" />
          </mxGeometry>
        </mxCell>
        <mxCell id="fKcihqamNsGxkIQtzTN--4" value="Access Group Booking" style="html=1;align=center;verticalAlign=top;rounded=1;absoluteArcSize=1;arcSize=10;dashed=0;whiteSpace=wrap;" vertex="1" parent="1">
          <mxGeometry x="290" y="220" width="140" height="30" as="geometry" />
        </mxCell>
        <mxCell id="fKcihqamNsGxkIQtzTN--12" style="edgeStyle=orthogonalEdgeStyle;rounded=0;orthogonalLoop=1;jettySize=auto;html=1;exitX=0.5;exitY=1;exitDx=0;exitDy=0;entryX=1;entryY=0.5;entryDx=0;entryDy=0;" edge="1" parent="1" source="fKcihqamNsGxkIQtzTN--5" target="fKcihqamNsGxkIQtzTN--10">
          <mxGeometry relative="1" as="geometry" />
        </mxCell>
        <mxCell id="fKcihqamNsGxkIQtzTN--14" value="Enter Origin/Destination" style="edgeLabel;html=1;align=center;verticalAlign=middle;resizable=0;points=[];" vertex="1" connectable="0" parent="fKcihqamNsGxkIQtzTN--12">
          <mxGeometry x="-0.3925" y="-1" relative="1" as="geometry">
            <mxPoint as="offset" />
          </mxGeometry>
        </mxCell>
        <mxCell id="fKcihqamNsGxkIQtzTN--5" value="Enter Trip Details" style="html=1;align=center;verticalAlign=top;rounded=1;absoluteArcSize=1;arcSize=10;dashed=0;whiteSpace=wrap;" vertex="1" parent="1">
          <mxGeometry x="520" y="220" width="120" height="30" as="geometry" />
        </mxCell>
        <mxCell id="fKcihqamNsGxkIQtzTN--16" style="edgeStyle=orthogonalEdgeStyle;rounded=0;orthogonalLoop=1;jettySize=auto;html=1;exitX=0.5;exitY=1;exitDx=0;exitDy=0;entryX=0.5;entryY=0;entryDx=0;entryDy=0;" edge="1" parent="1" source="fKcihqamNsGxkIQtzTN--10" target="fKcihqamNsGxkIQtzTN--15">
          <mxGeometry relative="1" as="geometry" />
        </mxCell>
        <mxCell id="fKcihqamNsGxkIQtzTN--10" value="Specify Group Size" style="html=1;align=center;verticalAlign=top;rounded=1;absoluteArcSize=1;arcSize=10;dashed=0;whiteSpace=wrap;" vertex="1" parent="1">
          <mxGeometry x="430" y="300" width="120" height="30" as="geometry" />
        </mxCell>
        <mxCell id="fKcihqamNsGxkIQtzTN--35" style="edgeStyle=orthogonalEdgeStyle;rounded=0;orthogonalLoop=1;jettySize=auto;html=1;exitX=0.5;exitY=1;exitDx=0;exitDy=0;entryX=0.75;entryY=0;entryDx=0;entryDy=0;" edge="1" parent="1" source="fKcihqamNsGxkIQtzTN--15" target="fKcihqamNsGxkIQtzTN--31">
          <mxGeometry relative="1" as="geometry" />
        </mxCell>
        <mxCell id="fKcihqamNsGxkIQtzTN--15" value="Add Special Requirements" style="html=1;align=center;verticalAlign=top;rounded=1;absoluteArcSize=1;arcSize=10;dashed=0;whiteSpace=wrap;" vertex="1" parent="1">
          <mxGeometry x="387.5" y="400" width="110" height="40" as="geometry" />
        </mxCell>
        <mxCell id="fKcihqamNsGxkIQtzTN--18" style="edgeStyle=orthogonalEdgeStyle;rounded=0;orthogonalLoop=1;jettySize=auto;html=1;exitX=0.25;exitY=0;exitDx=0;exitDy=0;entryX=0;entryY=0.5;entryDx=0;entryDy=0;" edge="1" parent="1" source="fKcihqamNsGxkIQtzTN--17" target="fKcihqamNsGxkIQtzTN--15">
          <mxGeometry relative="1" as="geometry" />
        </mxCell>
        <mxCell id="fKcihqamNsGxkIQtzTN--20" style="edgeStyle=orthogonalEdgeStyle;rounded=0;orthogonalLoop=1;jettySize=auto;html=1;exitX=1;exitY=0.25;exitDx=0;exitDy=0;entryX=0;entryY=0.25;entryDx=0;entryDy=0;" edge="1" parent="1" source="fKcihqamNsGxkIQtzTN--17" target="fKcihqamNsGxkIQtzTN--19">
          <mxGeometry relative="1" as="geometry" />
        </mxCell>
        <mxCell id="fKcihqamNsGxkIQtzTN--17" value="Handle Trip Updates" style="html=1;align=center;verticalAlign=top;rounded=1;absoluteArcSize=1;arcSize=10;dashed=0;whiteSpace=wrap;" vertex="1" parent="1">
          <mxGeometry x="300" y="480" width="120" height="30" as="geometry" />
        </mxCell>
        <mxCell id="fKcihqamNsGxkIQtzTN--23" style="edgeStyle=orthogonalEdgeStyle;rounded=0;orthogonalLoop=1;jettySize=auto;html=1;exitX=0.5;exitY=1;exitDx=0;exitDy=0;entryX=0.5;entryY=0;entryDx=0;entryDy=0;" edge="1" parent="1" source="fKcihqamNsGxkIQtzTN--19" target="fKcihqamNsGxkIQtzTN--22">
          <mxGeometry relative="1" as="geometry" />
        </mxCell>
        <mxCell id="fKcihqamNsGxkIQtzTN--24" value="Choose option" style="edgeLabel;html=1;align=center;verticalAlign=middle;resizable=0;points=[];" vertex="1" connectable="0" parent="fKcihqamNsGxkIQtzTN--23">
          <mxGeometry x="-0.0489" y="-3" relative="1" as="geometry">
            <mxPoint as="offset" />
          </mxGeometry>
        </mxCell>
        <mxCell id="fKcihqamNsGxkIQtzTN--19" value="Review Route Options" style="html=1;align=center;verticalAlign=top;rounded=1;absoluteArcSize=1;arcSize=10;dashed=0;whiteSpace=wrap;" vertex="1" parent="1">
          <mxGeometry x="530" y="480" width="140" height="30" as="geometry" />
        </mxCell>
        <mxCell id="fKcihqamNsGxkIQtzTN--21" style="edgeStyle=orthogonalEdgeStyle;rounded=0;orthogonalLoop=1;jettySize=auto;html=1;exitX=1;exitY=1;exitDx=0;exitDy=0;entryX=0.062;entryY=0.122;entryDx=0;entryDy=0;entryPerimeter=0;" edge="1" parent="1" source="fKcihqamNsGxkIQtzTN--15" target="fKcihqamNsGxkIQtzTN--19">
          <mxGeometry relative="1" as="geometry" />
        </mxCell>
        <mxCell id="fKcihqamNsGxkIQtzTN--22" value="Select and Bool Service" style="html=1;align=center;verticalAlign=top;rounded=1;absoluteArcSize=1;arcSize=10;dashed=0;whiteSpace=wrap;" vertex="1" parent="1">
          <mxGeometry x="530" y="585" width="140" height="30" as="geometry" />
        </mxCell>
        <mxCell id="fKcihqamNsGxkIQtzTN--29" style="edgeStyle=orthogonalEdgeStyle;rounded=0;orthogonalLoop=1;jettySize=auto;html=1;exitX=0.5;exitY=1;exitDx=0;exitDy=0;entryX=0.5;entryY=0;entryDx=0;entryDy=0;" edge="1" parent="1" source="fKcihqamNsGxkIQtzTN--25" target="fKcihqamNsGxkIQtzTN--28">
          <mxGeometry relative="1" as="geometry" />
        </mxCell>
        <mxCell id="fKcihqamNsGxkIQtzTN--30" value="Payment Complete" style="edgeLabel;html=1;align=center;verticalAlign=middle;resizable=0;points=[];" vertex="1" connectable="0" parent="fKcihqamNsGxkIQtzTN--29">
          <mxGeometry y="2" relative="1" as="geometry">
            <mxPoint as="offset" />
          </mxGeometry>
        </mxCell>
        <mxCell id="fKcihqamNsGxkIQtzTN--25" value="Payment and Confirmation" style="html=1;align=center;verticalAlign=top;rounded=1;absoluteArcSize=1;arcSize=10;dashed=0;whiteSpace=wrap;" vertex="1" parent="1">
          <mxGeometry x="560" y="670" width="100" height="40" as="geometry" />
        </mxCell>
        <mxCell id="fKcihqamNsGxkIQtzTN--26" style="edgeStyle=orthogonalEdgeStyle;rounded=0;orthogonalLoop=1;jettySize=auto;html=1;exitX=0.5;exitY=1;exitDx=0;exitDy=0;entryX=0.413;entryY=0.008;entryDx=0;entryDy=0;entryPerimeter=0;" edge="1" parent="1" source="fKcihqamNsGxkIQtzTN--22" target="fKcihqamNsGxkIQtzTN--25">
          <mxGeometry relative="1" as="geometry" />
        </mxCell>
        <mxCell id="fKcihqamNsGxkIQtzTN--27" value="Book" style="edgeLabel;html=1;align=center;verticalAlign=middle;resizable=0;points=[];" vertex="1" connectable="0" parent="fKcihqamNsGxkIQtzTN--26">
          <mxGeometry x="-0.0351" relative="1" as="geometry">
            <mxPoint as="offset" />
          </mxGeometry>
        </mxCell>
        <mxCell id="fKcihqamNsGxkIQtzTN--32" style="edgeStyle=orthogonalEdgeStyle;rounded=0;orthogonalLoop=1;jettySize=auto;html=1;exitX=0;exitY=0.25;exitDx=0;exitDy=0;entryX=1;entryY=0.25;entryDx=0;entryDy=0;" edge="1" parent="1" source="fKcihqamNsGxkIQtzTN--28" target="fKcihqamNsGxkIQtzTN--31">
          <mxGeometry relative="1" as="geometry" />
        </mxCell>
        <mxCell id="fKcihqamNsGxkIQtzTN--33" value="Check Status" style="edgeLabel;html=1;align=center;verticalAlign=middle;resizable=0;points=[];" vertex="1" connectable="0" parent="fKcihqamNsGxkIQtzTN--32">
          <mxGeometry x="0.2" y="-2" relative="1" as="geometry">
            <mxPoint as="offset" />
          </mxGeometry>
        </mxCell>
        <mxCell id="fKcihqamNsGxkIQtzTN--28" value="Receive Group Ticket" style="html=1;align=center;verticalAlign=top;rounded=1;absoluteArcSize=1;arcSize=10;dashed=0;whiteSpace=wrap;" vertex="1" parent="1">
          <mxGeometry x="540" y="780" width="140" height="30" as="geometry" />
        </mxCell>
        <mxCell id="fKcihqamNsGxkIQtzTN--34" style="edgeStyle=orthogonalEdgeStyle;rounded=0;orthogonalLoop=1;jettySize=auto;html=1;exitX=0.25;exitY=0;exitDx=0;exitDy=0;entryX=0.25;entryY=1;entryDx=0;entryDy=0;" edge="1" parent="1" source="fKcihqamNsGxkIQtzTN--31" target="fKcihqamNsGxkIQtzTN--17">
          <mxGeometry relative="1" as="geometry" />
        </mxCell>
        <mxCell id="fKcihqamNsGxkIQtzTN--37" style="edgeStyle=orthogonalEdgeStyle;rounded=0;orthogonalLoop=1;jettySize=auto;html=1;exitX=0.5;exitY=1;exitDx=0;exitDy=0;entryX=0.5;entryY=0;entryDx=0;entryDy=0;" edge="1" parent="1" source="fKcihqamNsGxkIQtzTN--31" target="fKcihqamNsGxkIQtzTN--36">
          <mxGeometry relative="1" as="geometry" />
        </mxCell>
        <mxCell id="fKcihqamNsGxkIQtzTN--38" value="Day or trip" style="edgeLabel;html=1;align=center;verticalAlign=middle;resizable=0;points=[];" vertex="1" connectable="0" parent="fKcihqamNsGxkIQtzTN--37">
          <mxGeometry x="0.0549" y="-1" relative="1" as="geometry">
            <mxPoint as="offset" />
          </mxGeometry>
        </mxCell>
        <mxCell id="fKcihqamNsGxkIQtzTN--31" value="Monitor Service Status" style="html=1;align=center;verticalAlign=top;rounded=1;absoluteArcSize=1;arcSize=10;dashed=0;whiteSpace=wrap;" vertex="1" parent="1">
          <mxGeometry x="296" y="780" width="134" height="30" as="geometry" />
        </mxCell>
        <mxCell id="fKcihqamNsGxkIQtzTN--40" style="edgeStyle=orthogonalEdgeStyle;rounded=0;orthogonalLoop=1;jettySize=auto;html=1;exitX=0.5;exitY=1;exitDx=0;exitDy=0;entryX=0.5;entryY=0;entryDx=0;entryDy=0;" edge="1" parent="1" source="fKcihqamNsGxkIQtzTN--36" target="fKcihqamNsGxkIQtzTN--39">
          <mxGeometry relative="1" as="geometry" />
        </mxCell>
        <mxCell id="fKcihqamNsGxkIQtzTN--36" value="Trip Execution" style="html=1;align=center;verticalAlign=top;rounded=1;absoluteArcSize=1;arcSize=10;dashed=0;whiteSpace=wrap;" vertex="1" parent="1">
          <mxGeometry x="300" y="880" width="120" height="30" as="geometry" />
        </mxCell>
        <mxCell id="fKcihqamNsGxkIQtzTN--42" style="edgeStyle=orthogonalEdgeStyle;rounded=0;orthogonalLoop=1;jettySize=auto;html=1;exitX=0.5;exitY=1;exitDx=0;exitDy=0;entryX=0.5;entryY=0;entryDx=0;entryDy=0;" edge="1" parent="1" source="fKcihqamNsGxkIQtzTN--39" target="fKcihqamNsGxkIQtzTN--41">
          <mxGeometry relative="1" as="geometry" />
        </mxCell>
        <mxCell id="fKcihqamNsGxkIQtzTN--39" value="Trip Completion" style="html=1;align=center;verticalAlign=top;rounded=1;absoluteArcSize=1;arcSize=10;dashed=0;whiteSpace=wrap;" vertex="1" parent="1">
          <mxGeometry x="300" y="960" width="130" height="30" as="geometry" />
        </mxCell>
        <mxCell id="fKcihqamNsGxkIQtzTN--41" value="" style="ellipse;html=1;shape=endState;fillColor=strokeColor;" vertex="1" parent="1">
          <mxGeometry x="349" y="1030" width="30" height="30" as="geometry" />
        </mxCell>
      </root>
    </mxGraphModel>
  </diagram>
</mxfile>
